<?xml version="1.0" encoding="utf-8"?>
<!-- Generator: Adobe Illustrator 28.1.0, SVG Export Plug-In . SVG Version: 6.00 Build 0)  -->
<svg version="1.1" id="Layer_1" xmlns="http://www.w3.org/2000/svg" xmlns:xlink="http://www.w3.org/1999/xlink" x="0px" y="0px"
	 viewBox="0 0 1024 1024" style="enable-background:new 0 0 1024 1024;" xml:space="preserve">
<style type="text/css">
	.st0{fill:#00213E;}
	.st1{fill:#CDA264;}
	.st2{fill:#FFFFFF;}
</style>
<g>
	<path class="st0" d="M863.6,594.5c0,21.6,0,43.3,0,64.9c-0.6,0.7-0.6,1.4,0,2.1c0,4.3,0,8.6,0,12.9c-0.6,1-0.6,2,0,3.1
		c0,19.3,0,38.6,0,58c-0.6,1.7-0.6,3.3,0,5c0,19,0,38-0.1,57c-0.1,0.1-0.3,0.2-0.3,0.3c0,0.3,0.1,0.5,0.2,0.7
		c-3.9,35.5-21.3,61.8-53.6,77.7c-6.4,3.1-13.2,5.1-20.1,6.8c-6.8,1.7-13.6,1.9-20.5,1.9c-171.8,0-343.5,0-515.3,0
		c-46.6,0-85.3-33-92.7-79c-0.8-4.9-1-9.8-1-14.7c0-176.3,0-352.5-0.1-528.8c0-37.1,24.1-65.2,55.5-72.8c7.9-1.9,15.9-1.5,23.8-1.6
		c8.2-0.1,16.3,0.1,24.5-0.1c3.2-0.1,4.2,0.7,4.1,4c-0.2,11.8-0.1,23.7-0.1,35.5c0.1,24.9,19.1,46,43.9,47.4
		c23.6,1.3,46.9-17.9,48.1-42.3c0.6-13.5,0.4-27,0.2-40.5c0-3.2,0.7-4.2,4.1-4.2c98.3,0.1,196.6,0.1,294.9,0c3.5,0,4.3,0.9,4.3,4.3
		c-0.1,13.3-0.8,26.7,0.3,40c1.7,20.7,16.5,37.1,36.8,41.7c18.2,4.1,38.7-5.7,48.8-23.3c4.3-7.5,6.3-15.7,6.3-24.2
		c0.1-11.5,0.1-23-0.1-34.5c0-2.7,0.2-4.1,3.6-4c13,0.3,26-0.4,39,0.4c25.4,1.5,51.1,19.5,60.8,47.2c2.3,6.5,3.4,13.2,4.3,20
		c0,0-0.2,0.1-0.2,0.1l0.2,0.1c0.1,6.5,0.2,13,0.2,19.5c0,96.5,0,192.9-0.1,289.3c-0.6,0.7-0.6,1.4,0,2.1c0,8.6,0,17.3,0,25.9
		C863,593.1,863,593.8,863.6,594.5z M512.5,502c-90.1,0-180.3,0-270.4,0c-16.3,0-32.7,0.1-49-0.1c-3,0-4,0.6-3.9,3.8
		c0.3,7.8,0.1,15.7,0.1,23.5c0,84.8,0.1,169.6,0,254.5c0,15.5,3.2,30.2,12.1,43.1c13.3,19.2,32.1,28.2,55.2,28.3c84,0.1,168,0,252,0
		c86.3,0,172.6,0,259,0c17.6,0,33.1-5.6,46-17.8c15.1-14.3,21.3-32.3,21.3-52.7c0.1-92.5,0-185,0.2-277.4c0-4.7-1.4-5.2-5.5-5.2
		C723.8,502,618.1,502,512.5,502z M512.5,241.8C512.5,241.8,512.5,241.8,512.5,241.8c-33.1,0-66.3,0.1-99.4,0
		c-2.9,0-4.3,0.2-4.2,3.8c0.2,37.3-0.3,74.6,0.3,111.9c0.3,18.6,5.1,36.2,15.6,52.1c20.8,31.6,50.1,52,84.6,66
		c2,0.8,3.7,0.6,5.7-0.2c14.8-5.9,28.9-13.2,41.9-22.4c36.6-25.7,58.5-59.4,58.2-105.6c-0.2-33.6-0.1-67.3,0-100.9
		c0-3.7-0.6-4.9-4.7-4.9C577.8,241.9,545.2,241.8,512.5,241.8z"/>
	<path class="st1" d="M286,185.4c0-14,0-28,0-42c0-15.3,11.8-27.5,27.7-28c14.6-0.5,28.3,9.3,28.6,25.1c0.7,29.9,1.3,59.9-0.3,89.9
		c-0.9,15.9-14.9,26.1-29.6,25.5c-14.4-0.6-26.2-13.3-26.4-28.1C285.9,213.8,286,199.6,286,185.4z"/>
	<path class="st1" d="M681.2,186.4c0-15.2,0-29.2,0-43.2c0-15.9,11.6-28,27.5-28c15.5,0,28.9,10.6,29.1,27.2c0.3,27.3,0.1,54.6,0,82
		c0,8.7-2,16.9-8.7,23.2c-8.4,7.8-18.1,10.9-29.2,6.6c-10.7-4.1-17-12-18.1-23.5C680.5,215.6,681.6,200.4,681.2,186.4z"/>
	<path class="st1" d="M863.6,740.5c-0.6-1.7-0.6-3.3,0-5C864,737.1,864,738.8,863.6,740.5z"/>
	<path class="st1" d="M863.6,677.5c-0.6-1-0.6-2.1,0-3.1C863.6,675.5,863.6,676.5,863.6,677.5z"/>
	<path class="st1" d="M863.6,566.5c-0.6-0.7-0.6-1.4,0-2.1C863.6,565.2,863.6,565.8,863.6,566.5z"/>
	<path class="st1" d="M863.6,594.5c-0.6-0.7-0.6-1.4,0-2.1C863.6,593.1,863.6,593.8,863.6,594.5z"/>
	<path class="st1" d="M863.6,661.5c-0.6-0.7-0.6-1.4,0-2.1C863.6,660.1,863.6,660.8,863.6,661.5z"/>
	<path class="st1" d="M863.4,798.5c-0.1-0.2-0.2-0.5-0.2-0.7c0-0.1,0.2-0.2,0.3-0.3c0.1,0.3,0.2,0.5,0.2,0.7
		C863.7,798.3,863.5,798.4,863.4,798.5z"/>
	<polygon class="st1" points="863.4,255.6 863.2,255.5 863.4,255.4 863.6,255.5 	"/>
	<path class="st2" d="M512.5,502c105.6,0,211.3,0,316.9-0.1c4.1,0,5.5,0.5,5.5,5.2c-0.2,92.5-0.1,185-0.2,277.4
		c0,20.4-6.2,38.4-21.3,52.7c-12.9,12.2-28.4,17.8-46,17.8c-86.3,0-172.6,0-259,0c-84,0-168,0.1-252,0c-23.1,0-42-9.1-55.2-28.3
		c-8.9-12.9-12.1-27.5-12.1-43.1c0.1-84.8,0-169.6,0-254.5c0-7.8,0.2-15.7-0.1-23.5c-0.1-3.2,0.9-3.8,3.9-3.8
		c16.3,0.1,32.7,0.1,49,0.1C332.2,502,422.3,502,512.5,502z M234.1,657.5c0.5,10-0.6,22.8,0.9,35.7c3.2,26.6,19,49.9,52.5,51.5
		c29.4,1.4,53.6-17.6,57.4-46.5c3.6-27.1,4.2-54.5-0.2-81.5c-6.3-39.5-35.5-52.1-68.1-45.9c-24.5,4.6-42.4,28-42.5,53.1
		C234,634.1,234.1,644.4,234.1,657.5z M654.6,572c-4.8,0-9.7,0.1-14.5,0c-2.6-0.1-3.6,0.6-4.3,3.4c-3.9,15.4-8.1,30.6-12.2,45.9
		c-10.4,38.8-20.8,77.5-31.3,116.2c-1,3.6,0,4.1,3.3,4c8.5-0.2,17-0.2,25.5,0c2.9,0.1,4.1-0.8,4.7-3.6c1.9-8.9,4.2-17.7,5.9-26.6
		c0.4-2.3,1.1-2.6,3.1-2.5c12.5,0.1,25,0.1,37.5,0c2.3,0,3.1,0.8,3.6,3c1.9,8.9,4.1,17.7,5.9,26.6c0.5,2.7,1.6,3.1,3.9,3.1
		c8.8-0.1,17.7-0.2,26.5,0c3.6,0.1,4.3-0.6,3.3-4.3c-6.4-23.1-12.6-46.2-18.7-69.3c-8.1-30.8-16.1-61.6-24.1-92.5
		c-0.7-2.5-1.8-3.7-4.7-3.5C663.6,572.3,659.1,572,654.6,572z M354.9,572c0.6,1.4,1.1,2.4,1.6,3.5c12.4,26,24.7,51.9,37.1,77.8
		c1,2.1,1.3,3.7,0.2,5.9c-8,16.5-15.8,33.1-23.7,49.7c-5.1,10.7-10.2,21.4-15.5,32.6c11.2,0,21.6-0.1,32,0.1c2.1,0,2.8-0.8,3.5-2.6
		c2.8-6.7,5.9-13.3,8.8-20c4.7-10.7,9.4-21.4,14.2-32.5c8.6,17.7,16.9,34.8,25.1,52c0.8,1.6,1.4,3,3.9,3c11.1-0.2,22.2-0.1,33.8-0.1
		c-0.5-1-0.8-1.5-1-2.1c-13.2-26.4-26.4-52.8-39.7-79.2c-1.2-2.4-1.1-4.1,0-6.4c6.2-13,12.3-26,18.4-39c6.6-14.2,13.3-28.3,20-42.8
		c-10.3,0-20.2,0.1-30-0.1c-2.8-0.1-4,0.8-5,3.4c-6.1,14.6-12.4,29.2-18.7,43.7c-1.3,3-2.1,6.4-4.5,9.1c-3.9-9.1-7.7-17.8-11.5-26.7
		c-3.8-9-7.6-18-11.3-26.9c-0.7-1.5-1.3-2.6-3.5-2.6C378,572.1,366.7,572,354.9,572z M513,661.5c0-12.7-0.3-22,0.1-31.4
		c0.3-9.2,2-18.1,7.7-25.8c5.1-7,12.6-7.5,20.2-6.3c6.7,1,10.2,5.8,12.1,11.8c1.3,4.1,2.3,8.3,2,12.7c-0.2,2.7,0.7,3.8,3.6,3.6
		c5.2-0.2,10.3-0.1,15.5-0.1c12.4,0,12.9,0,11.7-12.5c-1.8-19.2-10.7-34.6-28.7-41.1c-5.4-1.9-10.9-2.7-16.6-3.1
		c-18.3-1.2-34.7,2.8-46.6,18.1c-8.1,10.4-12,22.5-12.9,35.4c-1.6,22.6-1.5,45.3-0.1,67.9c1.5,25.6,15.5,51.4,49.9,53.6
		c34.3,2.1,56.7-18.9,55.1-52.4c-0.1-2.5-1-3-3.2-2.9c-7,0.1-14,0.2-21,0c-3.7-0.1-6.3,0-6.2,4.9c0.1,2.5-1,5.2-1.8,7.7
		c-2.6,8.2-8,13.1-16.9,13.7c-8.6,0.6-15.2-2.4-19.5-10.1c-1.8-3.4-2.9-7-3.5-10.8C511.9,682.4,513.5,670.2,513,661.5z M729,656.5
		c0,27,0,54,0,80.9c0,2.1-0.7,4.2,3,4.2c23.6-0.2,47.3-0.1,70.9-0.1c2.5,0,3.1-0.8,3-3.1c-0.1-7.5-0.2-15,0-22.5
		c0.1-3.4-0.7-4.5-4.2-4.4c-12,0.3-24-0.1-36,0.2c-4.3,0.1-5.1-1.3-5-5.3c0.1-43.3,0.1-86.6,0.2-129.9c0-3.6-0.5-4.9-4.5-4.7
		c-7.6,0.4-15.3,0.3-23,0c-3.8-0.2-4.6,1-4.6,4.6C729.1,603.2,729,629.8,729,656.5z"/>
	<path class="st2" d="M512.5,241.8c32.6,0,65.3,0.1,97.9-0.1c4.1,0,4.7,1.2,4.7,4.9c-0.1,33.6-0.2,67.3,0,100.9
		c0.3,46.1-21.6,79.9-58.2,105.6c-13.1,9.2-27.1,16.5-41.9,22.4c-2,0.8-3.7,1-5.7,0.2c-34.5-14-63.8-34.4-84.6-66
		c-10.5-15.9-15.3-33.5-15.6-52.1c-0.6-37.3-0.1-74.6-0.3-111.9c0-3.6,1.3-3.9,4.2-3.8C446.2,241.9,479.4,241.8,512.5,241.8
		C512.5,241.8,512.5,241.8,512.5,241.8z"/>
	<path class="st0" d="M234.1,657.5c0-13.1-0.1-23.4,0-33.7c0.2-25.2,18-48.5,42.5-53.1c32.7-6.1,61.8,6.5,68.1,45.9
		c4.3,27,3.8,54.4,0.2,81.5c-3.8,28.9-28.1,47.9-57.4,46.5c-33.5-1.6-49.3-24.9-52.5-51.5C233.5,680.3,234.6,667.5,234.1,657.5z"/>
	<path class="st2" d="M314.1,656.5c-0.2-14.1,1-28.2-2.9-42c-2.6-9.2-9.8-15.8-18.4-16.5c-9.9-0.8-17.5,3.7-21.7,13.1
		c-2.6,5.8-3.9,12-3.9,18.3c-0.2,15.8-0.2,31.6-0.2,47.5c0,5.8,0,11.6,1.1,17.4c2.2,11.6,8.5,19.3,17.2,20.7
		c13.8,2.1,23.8-4.8,26.8-18.7C314.8,683.1,313.9,669.8,314.1,656.5z"/>
	<path class="st0" d="M654.6,572c4.5,0,9,0.3,13.5-0.1c3-0.2,4.1,1,4.7,3.5c8,30.8,16,61.7,24.1,92.5c6.1,23.1,12.3,46.3,18.7,69.3
		c1,3.7,0.3,4.4-3.3,4.3c-8.8-0.2-17.7-0.1-26.5,0c-2.3,0-3.4-0.4-3.9-3.1c-1.7-8.9-4-17.7-5.9-26.6c-0.5-2.2-1.3-3-3.6-3
		c-12.5,0.1-25,0.1-37.5,0c-1.9,0-2.6,0.3-3.1,2.5c-1.7,8.9-4,17.7-5.9,26.6c-0.6,2.8-1.9,3.6-4.7,3.6c-8.5-0.2-17-0.2-25.5,0
		c-3.3,0.1-4.3-0.4-3.3-4c10.5-38.7,20.9-77.5,31.3-116.2c4.1-15.3,8.3-30.6,12.2-45.9c0.7-2.8,1.7-3.5,4.3-3.4
		C644.9,572.1,649.8,572,654.6,572z"/>
	<path class="st2" d="M654.3,614.4c-0.3,1.2-0.5,1.8-0.7,2.4c-4.8,20.4-9.6,40.7-14.4,61.1c-0.6,2.5,0.4,2.7,2.5,2.7
		c7.8-0.1,15.6-0.3,23.4,0.1c4.7,0.3,4.3-1.6,3.5-5C663.8,655.5,659.2,635.3,654.3,614.4z"/>
	<path class="st0" d="M354.9,572c11.8,0,23.1,0.1,34.3-0.1c2.2,0,2.8,1,3.5,2.6c3.8,9,7.5,18,11.3,26.9c3.8,8.8,7.6,17.6,11.5,26.7
		c2.3-2.7,3.1-6,4.5-9.1c6.3-14.5,12.6-29.1,18.7-43.7c1.1-2.6,2.2-3.4,5-3.4c9.8,0.2,19.6,0.1,30,0.1c-6.8,14.5-13.4,28.6-20,42.8
		c-6.1,13-12.2,26-18.4,39c-1.1,2.3-1.2,4.1,0,6.4c13.3,26.3,26.5,52.8,39.7,79.2c0.3,0.5,0.6,1.1,1,2.1c-11.6,0-22.7-0.1-33.8,0.1
		c-2.5,0-3.1-1.4-3.9-3c-8.3-17.1-16.6-34.2-25.1-52c-4.8,11.1-9.5,21.8-14.2,32.5c-2.9,6.7-6,13.3-8.8,20c-0.7,1.8-1.5,2.6-3.5,2.6
		c-10.4-0.1-20.9-0.1-32-0.1c5.3-11.2,10.4-21.9,15.5-32.6c7.9-16.6,15.7-33.2,23.7-49.7c1.1-2.2,0.8-3.8-0.2-5.9
		c-12.4-25.9-24.8-51.9-37.1-77.8C356,574.5,355.6,573.4,354.9,572z"/>
	<path class="st0" d="M513,661.5c0.5,8.8-1.1,20.9,1,33c0.6,3.8,1.7,7.4,3.5,10.8c4.2,7.7,10.9,10.7,19.5,10.1
		c8.9-0.6,14.3-5.5,16.9-13.7c0.8-2.5,1.9-5.1,1.8-7.7c-0.1-4.9,2.5-5,6.2-4.9c7,0.2,14,0.2,21,0c2.2,0,3.1,0.4,3.2,2.9
		c1.6,33.5-20.8,54.5-55.1,52.4c-34.4-2.1-48.4-28-49.9-53.6c-1.4-22.6-1.6-45.3,0.1-67.9c0.9-12.9,4.9-25,12.9-35.4
		c11.9-15.3,28.3-19.4,46.6-18.1c5.6,0.4,11.2,1.2,16.6,3.1c18,6.5,26.9,21.9,28.7,41.1c1.1,12.4,0.7,12.5-11.7,12.5
		c-5.2,0-10.3-0.2-15.5,0.1c-2.9,0.1-3.7-0.9-3.6-3.6c0.3-4.4-0.7-8.6-2-12.7c-1.9-6-5.4-10.8-12.1-11.8c-7.7-1.2-15.1-0.7-20.2,6.3
		c-5.6,7.6-7.4,16.6-7.7,25.8C512.7,639.4,513,648.8,513,661.5z"/>
	<path class="st0" d="M729,656.5c0-26.6,0.1-53.3-0.1-79.9c0-3.7,0.8-4.8,4.6-4.6c7.6,0.3,15.3,0.4,23,0c4-0.2,4.5,1.2,4.5,4.7
		c-0.1,43.3,0,86.6-0.2,129.9c0,4,0.7,5.4,5,5.3c12-0.4,24,0,36-0.2c3.6-0.1,4.4,1,4.2,4.4c-0.3,7.5-0.2,15,0,22.5
		c0,2.3-0.5,3.1-3,3.1c-23.6-0.1-47.3-0.1-70.9,0.1c-3.7,0-3-2.1-3-4.2C729,710.4,729,683.5,729,656.5z"/>
	<path class="st0" d="M578.3,395.7c-11.4-5.4-22.3-9.5-34.2-10.6c-9.7-0.9-18.9,0.6-27.2,6c-2.7,1.8-5.3,2.3-7.9,0.5
		c-14.3-9.5-29.4-8.4-44.7-3.2c-6,2.1-11.9,4.6-18.3,7.2c0-2.1,0-4,0-5.8c0-34.4,0.1-68.8-0.1-103.2c0-4,1-6,4.8-7.8
		c16.1-7.5,32.3-10.4,49.3-3.3c4.1,1.7,20.5,1.8,24.6,0c18.5-8.1,35.5-3.1,52.1,5.8c1.9,1,1.7,2.7,1.7,4.4
		C578.3,322.1,578.3,358.4,578.3,395.7z M503.2,341.2c0-4.7-0.1-9.1,0-13.4c0-2.2-0.5-3.4-2.8-4.1c-12.1-3.7-24.1-4.2-36.2,0
		c-1.7,0.6-3.1,1.2-3,3.4c0.1,4.4,0,8.9,0,13.9C475.5,335.4,489.2,335.8,503.2,341.2z M520.4,369.6c11.5-5.5,22.9-6.3,34.5-4.1
		c8.6,1.6,8.2,1.8,8.6-7c0.2-5-1.5-7.1-6.1-8.1c-9.4-2.1-18.8-2.4-28.2,0.1c-8.8,2.3-8.8,2.4-8.8,11.4
		C520.4,364.1,520.4,366.4,520.4,369.6z M563.3,340.8c0-3.7-0.4-6.8,0.1-9.7c0.8-5-1.5-7.1-6-8.3c-10.7-2.9-21.4-1.5-32.1,0
		c-2.7,0.4-5,2.6-5,6c0,3,0.1,6.1,0,9.1c-0.1,3.2,0.8,3.1,3.6,2.1C536.8,335.3,549.8,334.6,563.3,340.8z M503.2,368.1
		c0-3.8-0.4-7.2,0.1-10.5c0.6-4.3-1.5-5.9-5.2-6.9c-11.3-2.9-22.4-2.8-33.4,1c-1.8,0.6-3.4,1.2-3.3,3.8c0.2,4.4,0.1,8.9,0.1,14
		C475.5,362.3,489.1,363.4,503.2,368.1z M563.3,312.2c0-4.4-0.1-8.4,0-12.3c0.1-2-0.7-3-2.7-3.7c-12.5-4.4-24.9-4.5-37.2,0.5
		c-1.9,0.8-3.2,1.8-3.1,4.2c0.2,4.1,0,8.1,0,12.4C535.7,307.4,546.4,307.1,563.3,312.2z M503.2,312.6c0-3.8-0.3-6.9,0.1-9.9
		c0.6-4.3-1.4-6.1-5.2-7.3c-7.7-2.5-15.7-3.2-23.6-2.2c-13.3,1.7-13.7,2.4-13.4,15.9c0,0.9,0.1,1.8,0.2,3.2
		C475.1,306.9,488.8,307.2,503.2,312.6z"/>
</g>
</svg>
