<svg xmlns="http://www.w3.org/2000/svg" viewBox="0 0 512 512" width="512" height="512">
  <rect width="512" height="512" fill="#002147"/>
  <rect x="50" y="100" width="412" height="312" rx="20" fill="white"/>
  <rect x="80" y="180" width="50" height="50" fill="#9c27b0"/>
  <rect x="150" y="180" width="50" height="50" fill="#2196f3"/>
  <rect x="220" y="180" width="50" height="50" fill="#4caf50"/>
  <rect x="290" y="180" width="50" height="50" fill="#002147"/>
  <rect x="360" y="180" width="50" height="50" fill="#9c27b0"/>
  <rect x="80" y="250" width="50" height="50" fill="#2196f3"/>
  <rect x="150" y="250" width="50" height="50" fill="#4caf50"/>
  <rect x="220" y="250" width="50" height="50" fill="#002147"/>
  <rect x="290" y="250" width="50" height="50" fill="#9c27b0"/>
  <rect x="360" y="250" width="50" height="50" fill="#2196f3"/>
  <rect x="80" y="320" width="50" height="50" fill="#4caf50"/>
  <rect x="150" y="320" width="50" height="50" fill="#002147"/>
  <rect x="220" y="320" width="50" height="50" fill="#9c27b0"/>
  <rect x="290" y="320" width="50" height="50" fill="#2196f3"/>
  <rect x="360" y="320" width="50" height="50" fill="#4caf50"/>
  <text x="256" y="150" font-family="Arial, sans-serif" font-size="48" font-weight="bold" text-anchor="middle" fill="#002147">OxCal</text>
</svg>